<svg width="64" height="64" viewBox="0 0 64 64" fill="none" xmlns="http://www.w3.org/2000/svg">
<path d="M4 32C4.00195 33.3152 4.32743 34.6097 4.94773 35.7694C5.56804 36.9291 6.46413 37.9183 7.557 38.65C6.76777 39.8932 6.26316 41.2955 6.07929 42.7565C5.89543 44.2175 6.03685 45.7011 6.49343 47.101C6.95002 48.501 7.71048 49.7827 8.72037 50.8544C9.73025 51.926 10.9646 52.7612 12.335 53.3C12.806 54.899 13.7683 56.3091 15.0855 57.3306C16.4028 58.352 18.0081 58.9329 19.674 58.991C20.2392 60.1889 21.1331 61.2017 22.2516 61.9112C23.37 62.6208 24.6671 62.998 25.9916 62.999C27.3162 62.9999 28.6138 62.6245 29.7333 61.9166C30.8528 61.2086 31.7481 60.1971 32.315 59H37C37.2652 59 37.5196 58.8946 37.7071 58.7071C37.8946 58.5196 38 58.2652 38 58V56.3C40.7032 55.662 43.2853 54.5904 45.646 53.127L46.846 54.327C47.0335 54.5145 47.2878 54.6198 47.553 54.6198C47.8182 54.6198 48.0725 54.5145 48.26 54.327L55.331 47.257C55.5185 47.0695 55.6238 46.8152 55.6238 46.55C55.6238 46.2848 55.5185 46.0305 55.331 45.843L54.131 44.643C55.5926 42.2829 56.6628 39.7019 57.3 37H59C59.2652 37 59.5196 36.8946 59.7071 36.7071C59.8946 36.5196 60 36.2652 60 36V26C60 25.7348 59.8946 25.4804 59.7071 25.2929C59.5196 25.1054 59.2652 25 59 25H57.3C56.6626 22.2967 55.5914 19.7146 54.128 17.354L55.328 16.154C55.5155 15.9665 55.6208 15.7122 55.6208 15.447C55.6208 15.1818 55.5155 14.9275 55.328 14.74L48.263 7.666C48.0755 7.47853 47.8212 7.37321 47.556 7.37321C47.2908 7.37321 47.0365 7.47853 46.849 7.666L45.649 8.866C43.2871 7.40445 40.7039 6.33526 38 5.7V4C38 3.73478 37.8946 3.48043 37.7071 3.29289C37.5196 3.10536 37.2652 3 37 3H31.46C30.7451 2.19956 29.8283 1.60586 28.8054 1.28097C27.7825 0.95607 26.6912 0.911905 25.6454 1.15309C24.5996 1.39427 23.6379 1.91194 22.8606 2.652C22.0833 3.39205 21.5191 4.3273 21.227 5.36C20.1741 5.00897 19.0528 4.91299 17.9555 5.07995C16.8583 5.2469 15.8163 5.67202 14.9154 6.32032C14.0145 6.96863 13.2805 7.82158 12.7736 8.80901C12.2668 9.79643 12.0016 10.8901 12 12C12 12.088 12 12.175 12 12.261C10.6911 12.5977 9.48903 13.2608 8.50612 14.1883C7.5232 15.1159 6.7916 16.2776 6.37972 17.5647C5.96784 18.8519 5.88915 20.2225 6.15101 21.5484C6.41286 22.8743 7.0067 24.112 7.877 25.146C6.69648 25.8592 5.71961 26.8646 5.04054 28.0651C4.36147 29.2656 4.00311 30.6208 4 32ZM33 16.051C37.0639 16.2962 40.881 18.0834 43.6718 21.0476C46.4627 24.0119 48.0167 27.9297 48.0167 32.001C48.0167 36.0723 46.4627 39.9901 43.6718 42.9544C40.881 45.9186 37.0639 47.7058 33 47.951V38H34.465L36.165 40.555C36.2566 40.6923 36.3808 40.8049 36.5265 40.8825C36.6722 40.9602 36.8349 41.0005 37 41H38.184C38.4199 41.6672 38.8841 42.2296 39.4945 42.5876C40.1049 42.9457 40.8222 43.0765 41.5197 42.9568C42.2172 42.8371 42.85 42.4747 43.3061 41.9337C43.7622 41.3926 44.0124 40.7077 44.0124 40C44.0124 39.2923 43.7622 38.6074 43.3061 38.0663C42.85 37.5253 42.2172 37.1629 41.5197 37.0432C40.8222 36.9235 40.1049 37.0543 39.4945 37.4124C38.8841 37.7704 38.4199 38.3328 38.184 39H37.535L35.835 36.445C35.7434 36.3077 35.6192 36.1951 35.4735 36.1175C35.3278 36.0398 35.1651 35.9995 35 36H33V33H40.184C40.4199 33.6672 40.8841 34.2296 41.4945 34.5876C42.1049 34.9457 42.8222 35.0765 43.5197 34.9568C44.2172 34.8371 44.85 34.4747 45.3061 33.9337C45.7622 33.3926 46.0124 32.7077 46.0124 32C46.0124 31.2923 45.7622 30.6074 45.3061 30.0663C44.85 29.5253 44.2172 29.1629 43.5197 29.0432C42.8222 28.9235 42.1049 29.0543 41.4945 29.4124C40.8841 29.7704 40.4199 30.3328 40.184 31H33V28H35C35.1646 28 35.3266 27.9594 35.4718 27.8818C35.6169 27.8042 35.7407 27.6919 35.832 27.555L37.535 25H38.184C38.4199 25.6672 38.8841 26.2296 39.4945 26.5876C40.1049 26.9457 40.8222 27.0765 41.5197 26.9568C42.2172 26.8371 42.85 26.4747 43.3061 25.9337C43.7622 25.3926 44.0124 24.7077 44.0124 24C44.0124 23.2923 43.7622 22.6074 43.3061 22.0663C42.85 21.5253 42.2172 21.1629 41.5197 21.0432C40.8222 20.9235 40.1049 21.0543 39.4945 21.4124C38.8841 21.7704 38.4199 22.3328 38.184 23H37C36.8354 23 36.6734 23.0406 36.5282 23.1182C36.3831 23.1958 36.2593 23.3081 36.168 23.445L34.465 26H33V16.051ZM40 40C40 39.8022 40.0586 39.6089 40.1685 39.4444C40.2784 39.28 40.4346 39.1518 40.6173 39.0761C40.8 39.0004 41.0011 38.9806 41.1951 39.0192C41.3891 39.0578 41.5673 39.153 41.7071 39.2929C41.847 39.4327 41.9422 39.6109 41.9808 39.8049C42.0194 39.9989 41.9996 40.2 41.9239 40.3827C41.8482 40.5654 41.72 40.7216 41.5556 40.8315C41.3911 40.9414 41.1978 41 41 41C40.7348 41 40.4804 40.8946 40.2929 40.7071C40.1054 40.5196 40 40.2652 40 40ZM42 32C42 31.8022 42.0586 31.6089 42.1685 31.4444C42.2784 31.28 42.4346 31.1518 42.6173 31.0761C42.8 31.0004 43.0011 30.9806 43.1951 31.0192C43.3891 31.0578 43.5673 31.153 43.7071 31.2929C43.847 31.4327 43.9422 31.6109 43.9808 31.8049C44.0194 31.9989 43.9996 32.2 43.9239 32.3827C43.8482 32.5654 43.72 32.7216 43.5556 32.8315C43.3911 32.9413 43.1978 33 43 33C42.7348 33 42.4804 32.8946 42.2929 32.7071C42.1054 32.5196 42 32.2652 42 32ZM40 24C40 23.8022 40.0586 23.6089 40.1685 23.4444C40.2784 23.28 40.4346 23.1518 40.6173 23.0761C40.8 23.0004 41.0011 22.9806 41.1951 23.0192C41.3891 23.0578 41.5673 23.153 41.7071 23.2929C41.847 23.4327 41.9422 23.6109 41.9808 23.8049C42.0194 23.9989 41.9996 24.2 41.9239 24.3827C41.8482 24.5654 41.72 24.7216 41.5556 24.8315C41.3911 24.9413 41.1978 25 41 25C40.7348 25 40.4804 24.8946 40.2929 24.7071C40.1054 24.5196 40 24.2652 40 24ZM36 5V6.5C36 6.73053 36.0796 6.954 36.2253 7.13258C36.3711 7.31116 36.5741 7.43389 36.8 7.48C39.8097 8.09127 42.6724 9.27983 45.23 10.98C45.4224 11.1075 45.653 11.1645 45.8827 11.1414C46.1123 11.1182 46.3269 11.0163 46.49 10.853L47.555 9.788L53.212 15.445L52.147 16.51C51.9837 16.6731 51.8818 16.8877 51.8586 17.1173C51.8355 17.347 51.8925 17.5776 52.02 17.77C53.7202 20.3276 54.9087 23.1903 55.52 26.2C55.5661 26.4259 55.6888 26.6289 55.8674 26.7747C56.046 26.9204 56.2695 27 56.5 27H58V35H56.5C56.2695 35 56.046 35.0796 55.8674 35.2253C55.6888 35.3711 55.5661 35.5741 55.52 35.8C54.9087 38.8097 53.7202 41.6724 52.02 44.23C51.8926 44.4222 51.8356 44.6525 51.8586 44.882C51.8815 45.1114 51.9831 45.3258 52.146 45.489L53.212 46.556L47.555 52.212L46.49 51.146C46.3268 50.9828 46.1121 50.8811 45.8825 50.8582C45.6528 50.8352 45.4223 50.8924 45.23 51.02C42.6725 52.7203 39.8097 53.9089 36.8 54.52C36.5741 54.5661 36.3711 54.6888 36.2253 54.8674C36.0796 55.046 36 55.2695 36 55.5V57H32.92C32.9705 56.669 32.9972 56.3348 33 56V49.949C37.5968 49.7063 41.9253 47.7093 45.0933 44.3696C48.2613 41.03 50.0273 36.6022 50.0273 31.999C50.0273 27.3958 48.2613 22.968 45.0933 19.6284C41.9253 16.2887 37.5968 14.2917 33 14.049V7C32.9983 6.31825 32.8799 5.64182 32.65 5H36ZM9.933 26.369C10.0991 26.3082 10.2461 26.2045 10.359 26.0684C10.4719 25.9323 10.5467 25.7687 10.5758 25.5943C10.6048 25.4199 10.5871 25.2408 10.5245 25.0755C10.4618 24.9101 10.3564 24.7643 10.219 24.653C9.30789 23.9152 8.63344 22.9261 8.27934 21.8085C7.92524 20.6909 7.90707 19.4939 8.22708 18.366C8.54709 17.2382 9.19119 16.2291 10.0795 15.464C10.9678 14.6988 12.0612 14.2114 13.224 14.062C13.3608 14.0449 13.4927 13.9998 13.6112 13.9293C13.7298 13.8589 13.8324 13.7647 13.9128 13.6527C13.9932 13.5406 14.0496 13.4132 14.0783 13.2783C14.1071 13.1434 14.1077 13.0041 14.08 12.869C14.0243 12.5827 13.9975 12.2916 14 12C14.0016 10.6744 14.5289 9.40356 15.4662 8.46622C16.4036 7.52888 17.6744 7.00159 19 7C19.8783 6.99612 20.7416 7.22783 21.5 7.671C21.6494 7.75923 21.8191 7.80709 21.9926 7.80986C22.1661 7.81262 22.3373 7.77021 22.4894 7.68679C22.6415 7.60336 22.7693 7.4818 22.8603 7.33403C22.9512 7.18627 23.0021 7.01739 23.008 6.844C23.0697 5.81284 23.5279 4.84553 24.2867 4.14461C25.0456 3.44369 26.0461 3.0635 27.0789 3.08366C28.1117 3.10382 29.0967 3.52276 29.8276 4.25276C30.5585 4.98276 30.9786 5.96722 31 7V18.54C29.9033 17.5491 28.478 17.0004 27 17V19C28.0609 19 29.0783 19.4214 29.8284 20.1716C30.5786 20.9217 31 21.9391 31 23V56C30.9974 57.1788 30.5785 58.3188 29.8171 59.2187C29.0557 60.1186 28.0008 60.7205 26.8387 60.9182C25.6766 61.116 24.482 60.8967 23.4659 60.2993C22.4497 59.7019 21.6773 58.7646 21.285 57.653C21.2116 57.4556 21.0792 57.2855 20.9059 57.1658C20.7326 57.0462 20.5266 56.9827 20.316 56.984C20.2661 56.984 20.2163 56.988 20.167 56.996C20.1114 57.0003 20.0557 57.0017 20 57C18.6361 57.0078 17.3108 56.5475 16.2454 55.6959C15.18 54.8444 14.4389 53.6531 14.146 52.321C14.1081 52.1522 14.0272 51.9961 13.911 51.868C13.7947 51.7399 13.6473 51.6441 13.483 51.59C12.2538 51.1844 11.1417 50.4862 10.2423 49.5553C9.34296 48.6244 8.68337 47.4889 8.32037 46.2465C7.95737 45.0041 7.90183 43.692 8.15855 42.4234C8.41526 41.1548 8.97653 39.9675 9.794 38.964C9.89057 38.8461 9.95891 38.7077 9.99382 38.5594C10.0287 38.411 10.0293 38.2567 9.9954 38.1081C9.96154 37.9595 9.89416 37.8206 9.79842 37.7021C9.70268 37.5835 9.58111 37.4884 9.443 37.424C8.37423 36.9189 7.47848 36.1094 6.86817 35.097C6.25786 34.0846 5.9602 32.9145 6.01254 31.7336C6.06488 30.5526 6.4649 29.4135 7.16239 28.4591C7.85987 27.5047 8.82374 26.7775 9.933 26.369V26.369Z" fill="black"/>
<path d="M19 37C20.5908 37.0016 22.116 37.6342 23.2409 38.7591C24.3658 39.884 24.9984 41.4092 25 43H27C26.9976 40.879 26.154 38.8456 24.6542 37.3458C23.1544 35.846 21.121 35.0024 19 35V37ZM18 46H16C16.0016 47.5908 16.6342 49.116 17.7591 50.2409C18.884 51.3658 20.4092 51.9984 22 52V50C20.9391 50 19.9217 49.5786 19.1716 48.8284C18.4214 48.0783 18 47.0609 18 46ZM22 18V16C20.1441 16.0021 18.3649 16.7403 17.0526 18.0526C15.7403 19.3649 15.0021 21.1441 15 23H17C17.0016 21.6744 17.5289 20.4036 18.4662 19.4662C19.4036 18.5289 20.6744 18.0016 22 18V18Z" fill="black"/>
</svg>
