<svg width="64" height="64" viewBox="0 0 64 64" fill="none" xmlns="http://www.w3.org/2000/svg">
<path d="M25 12V22C25 22.2652 25.1054 22.5196 25.2929 22.7071C25.4805 22.8946 25.7348 23 26 23H38C38.2652 23 38.5196 22.8946 38.7071 22.7071C38.8947 22.5196 39 22.2652 39 22V12C39 11.2043 38.684 10.4413 38.1213 9.87867C37.5587 9.31606 36.7957 8.99999 36 8.99999H34.794C35.5265 8.41987 36.0601 7.62615 36.321 6.72897C36.5819 5.8318 36.5571 4.87566 36.25 3.99324C35.9428 3.11083 35.3687 2.34589 34.6071 1.80458C33.8455 1.26328 32.9344 0.972443 32 0.972443C31.0657 0.972443 30.1545 1.26328 29.393 1.80458C28.6314 2.34589 28.0572 3.11083 27.7501 3.99324C27.443 4.87566 27.4181 5.8318 27.679 6.72897C27.9399 7.62615 28.4736 8.41987 29.206 8.99999H28C27.2044 8.99999 26.4413 9.31606 25.8787 9.87867C25.3161 10.4413 25 11.2043 25 12V12ZM32 2.99999C32.4945 2.99999 32.9778 3.14661 33.389 3.42131C33.8001 3.69602 34.1205 4.08646 34.3097 4.54328C34.4989 5.00009 34.5485 5.50276 34.452 5.98771C34.3555 6.47266 34.1174 6.91812 33.7678 7.26775C33.4182 7.61738 32.9727 7.85549 32.4878 7.95195C32.0028 8.04841 31.5001 7.9989 31.0433 7.80969C30.5865 7.62047 30.1961 7.30003 29.9214 6.88891C29.6467 6.47779 29.5 5.99444 29.5 5.49999C29.5 4.83694 29.7634 4.20106 30.2323 3.73222C30.7011 3.26338 31.337 2.99999 32 2.99999V2.99999ZM36 11C36.2652 11 36.5196 11.1053 36.7071 11.2929C36.8947 11.4804 37 11.7348 37 12V21H27V12C27 11.7348 27.1054 11.4804 27.2929 11.2929C27.4805 11.1053 27.7348 11 28 11H36ZM40.94 40.1C40.8785 39.8694 40.7706 39.6538 40.6229 39.4664C40.4752 39.279 40.2908 39.1237 40.081 39.01L39.752 38.827C39.816 38.2782 39.816 37.7238 39.752 37.175L40.08 36.993C40.29 36.8791 40.4746 36.7237 40.6224 36.5361C40.7703 36.3485 40.8784 36.1327 40.94 35.902C41.0016 35.6754 41.0163 35.4387 40.9833 35.2062C40.9503 34.9737 40.8703 34.7505 40.748 34.55L39.46 32.418C39.2127 32.0196 38.8223 31.7311 38.3688 31.6117C37.9154 31.4923 37.4334 31.5511 37.022 31.776L36.646 31.984C36.1626 31.6373 35.6416 31.3461 35.093 31.116V30.769C35.0877 30.2954 34.8949 29.8432 34.5567 29.5116C34.2185 29.18 33.7626 28.996 33.289 29H30.711C30.2381 28.997 29.7832 29.1815 29.4459 29.513C29.1086 29.8445 28.9163 30.2961 28.911 30.769V31.116C28.3625 31.3463 27.8416 31.6374 27.358 31.984L26.983 31.778C26.5722 31.5522 26.0904 31.4925 25.6369 31.6112C25.1834 31.7299 24.7926 32.0179 24.545 32.416L23.255 34.551C23.1331 34.7512 23.0533 34.9742 23.0205 35.2063C22.9876 35.4384 23.0025 35.6748 23.064 35.901C23.1255 36.1315 23.2334 36.3471 23.3811 36.5346C23.5288 36.722 23.7132 36.8773 23.923 36.991L24.252 37.174C24.188 37.7228 24.188 38.2772 24.252 38.826L23.924 39.008C23.7141 39.1218 23.5295 39.2773 23.3816 39.4649C23.2338 39.6525 23.1257 39.8682 23.064 40.099C23.0024 40.3256 22.9877 40.5623 23.0207 40.7948C23.0537 41.0272 23.1338 41.2505 23.256 41.451L24.544 43.582C24.7915 43.9802 25.182 44.2686 25.6353 44.388C26.0887 44.5073 26.5706 44.4487 26.982 44.224L27.358 44.016C27.8415 44.3627 28.3624 44.6539 28.911 44.884V45.231C28.9163 45.7039 29.1086 46.1555 29.4459 46.487C29.7832 46.8185 30.2381 47.0029 30.711 47H33.289C33.762 47.0029 34.2168 46.8185 34.5541 46.487C34.8914 46.1555 35.0838 45.7039 35.089 45.231V44.884C35.6376 44.6537 36.1585 44.3625 36.642 44.016L37.017 44.222C37.4278 44.448 37.9097 44.5078 38.3633 44.3891C38.8168 44.2704 39.2076 43.9823 39.455 43.584L40.745 41.449C40.8675 41.2492 40.9479 41.0265 40.9814 40.7946C41.0149 40.5626 41.0009 40.3263 40.94 40.1V40.1ZM37.8 38C37.8002 38.247 37.7822 38.4936 37.746 38.738C37.7009 39.0885 37.7627 39.4444 37.9233 39.7591C38.0839 40.0739 38.3358 40.3328 38.646 40.502L38.897 40.642L37.84 42.392L37.513 42.211C37.2016 42.045 36.8496 41.9706 36.4976 41.9962C36.1456 42.0219 35.8081 42.1466 35.524 42.356C35.1283 42.6471 34.6972 42.8867 34.241 43.069C33.906 43.1965 33.6171 43.4219 33.4118 43.7158C33.2066 44.0097 33.0945 44.3585 33.09 44.717V45H30.907V44.717C30.9027 44.3586 30.7906 44.0099 30.5853 43.7162C30.38 43.4224 30.091 43.1972 29.756 43.07C29.2994 42.8866 28.8676 42.6464 28.471 42.355C28.1866 42.1459 27.8488 42.0216 27.4967 41.9963C27.1446 41.971 26.7925 42.0458 26.481 42.212L26.157 42.392L25.1 40.642L25.35 40.503C25.6609 40.3335 25.9132 40.0739 26.0738 39.7584C26.2344 39.4428 26.2959 39.0861 26.25 38.735C26.2156 38.4915 26.1989 38.2459 26.2 38C26.1998 37.753 26.2179 37.5063 26.254 37.262C26.2992 36.9115 26.2374 36.5556 26.0768 36.2408C25.9162 35.9261 25.6643 35.6671 25.354 35.498L25.103 35.358L26.16 33.608L26.487 33.789C26.7985 33.9547 27.1505 34.029 27.5024 34.0034C27.8544 33.9777 28.1919 33.8531 28.476 33.644C28.8717 33.3529 29.3029 33.1133 29.759 32.931C30.094 32.8034 30.383 32.5781 30.5882 32.2842C30.7935 31.9903 30.9056 31.6414 30.91 31.283V31H33.096V31.283C33.1004 31.6413 33.2125 31.9901 33.4178 32.2838C33.6231 32.5776 33.912 32.8027 34.247 32.93C34.7037 33.1134 35.1354 33.3536 35.532 33.645C35.8162 33.8547 36.154 33.9795 36.5063 34.0048C36.8586 34.0301 37.2108 33.9549 37.522 33.788L37.846 33.608L38.903 35.358L38.653 35.497C38.3422 35.6665 38.0899 35.9261 37.9292 36.2416C37.7686 36.5572 37.7072 36.9139 37.753 37.265C37.7864 37.5085 37.8021 37.7542 37.8 38V38Z" fill="#e03a3c"/>
<path d="M32 34.5C31.3078 34.5 30.6311 34.7053 30.0555 35.0898C29.4799 35.4744 29.0313 36.0211 28.7664 36.6606C28.5015 37.3001 28.4322 38.0039 28.5673 38.6828C28.7023 39.3617 29.0356 39.9854 29.5251 40.4749C30.0146 40.9643 30.6383 41.2977 31.3172 41.4327C31.9961 41.5678 32.6999 41.4985 33.3394 41.2336C33.9789 40.9687 34.5256 40.5201 34.9101 39.9445C35.2947 39.3689 35.5 38.6922 35.5 38C35.5 37.0717 35.1312 36.1815 34.4749 35.5251C33.8185 34.8687 32.9283 34.5 32 34.5ZM32 39.5C31.7033 39.5 31.4133 39.412 31.1666 39.2472C30.92 39.0824 30.7277 38.8481 30.6142 38.574C30.5007 38.2999 30.4709 37.9983 30.5288 37.7073C30.5867 37.4164 30.7296 37.1491 30.9393 36.9393C31.1491 36.7295 31.4164 36.5867 31.7074 36.5288C31.9983 36.4709 32.2999 36.5006 32.574 36.6142C32.8481 36.7277 33.0824 36.92 33.2472 37.1666C33.412 37.4133 33.5 37.7033 33.5 38C33.5 38.3978 33.342 38.7793 33.0607 39.0606C32.7794 39.342 32.3978 39.5 32 39.5V39.5ZM12.315 28.666L10.442 27.966C10.201 28.61 9.988 29.266 9.809 29.932L11.738 30.457C11.9 29.857 12.1 29.254 12.315 28.666V28.666ZM41.888 17.469C42.445 17.769 42.988 18.091 43.506 18.431L44.606 16.759C44.0307 16.3813 43.4388 16.0296 42.832 15.705L41.888 17.469ZM54.909 38.059C54.97 37.38 55 36.687 55 36V35.907L53 36C53 36.628 52.972 37.262 52.917 37.883L54.909 38.059ZM49.99 25.16C50.312 25.692 50.614 26.249 50.89 26.813L52.69 25.937C52.39 25.318 52.058 24.71 51.706 24.127L49.99 25.16ZM40.269 55.31L41.058 57.147C41.6904 56.8761 42.3097 56.5757 42.914 56.247L41.965 54.487C41.419 54.785 40.848 55.061 40.269 55.31V55.31ZM13.941 25.273L12.223 24.252C11.87 24.844 11.543 25.452 11.249 26.068L13.049 26.934C13.32 26.373 13.62 25.814 13.941 25.273V25.273ZM51.637 28.54C51.858 29.125 52.057 29.727 52.226 30.33L54.151 29.789C53.9663 29.1267 53.7511 28.4734 53.506 27.831L51.637 28.54ZM32.965 56.978L33.057 58.978C33.743 58.9457 34.4273 58.884 35.108 58.793L34.843 56.811C34.2196 56.893 33.5931 56.9487 32.965 56.978ZM16.149 22.225L14.64 20.912C14.1893 21.4313 13.7613 21.9698 13.357 22.526L14.977 23.7C15.347 23.189 15.741 22.693 16.149 22.225ZM52.65 32.163C52.764 32.78 52.85 33.408 52.908 34.029L54.9 33.844C54.836 33.1595 54.7416 32.4781 54.617 31.802L52.65 32.163ZM21.042 15.773C20.442 16.099 19.85 16.456 19.276 16.837L20.384 18.5C20.9069 18.1521 21.4451 17.8278 21.997 17.528L21.042 15.773ZM21.123 56.27C21.723 56.592 22.347 56.894 22.986 57.17L23.77 55.33C23.1913 55.0838 22.624 54.8116 22.07 54.514L21.123 56.27ZM16.063 19.418L17.448 20.859C17.903 20.423 18.379 20.005 18.863 19.617L17.613 18.057C17.083 18.48 16.562 18.939 16.063 19.418ZM9.357 31.944C9.23674 32.621 9.14665 33.303 9.087 33.988L11.079 34.162C11.1344 33.5361 11.2168 32.9128 11.326 32.294L9.357 31.944ZM9 36.048C9 36.728 9.033 37.42 9.1 38.106L11.092 37.927C11.0306 37.3012 10.9999 36.6728 11 36.044L9 36.048ZM28.938 58.8C29.612 58.891 30.305 58.951 30.994 58.981L31.08 56.981C30.4525 56.9545 29.8265 56.8994 29.204 56.816L28.938 58.8ZM47.765 22.126C48.18 22.598 48.577 23.091 48.944 23.592L50.558 22.41C50.158 21.86 49.72 21.32 49.265 20.804L47.765 22.126ZM45.033 19.533C45.525 19.924 46.004 20.339 46.455 20.769L47.834 19.319C47.334 18.849 46.815 18.394 46.277 17.967L45.033 19.533ZM36.694 56.474L37.14 58.423C37.8103 58.27 38.4733 58.0868 39.127 57.874L38.51 55.974C37.914 56.165 37.3 56.334 36.694 56.474ZM24.918 57.889C25.566 58.099 26.236 58.283 26.91 58.435L27.35 56.483C26.736 56.345 26.126 56.183 25.535 55.983L24.918 57.889ZM15 49H13.794C14.5264 48.4199 15.0601 47.6261 15.321 46.729C15.5819 45.8318 15.5571 44.8757 15.2499 43.9932C14.9428 43.1108 14.3686 42.3459 13.6071 41.8046C12.8455 41.2633 11.9343 40.9724 11 40.9724C10.0657 40.9724 9.15449 41.2633 8.39293 41.8046C7.63137 42.3459 7.05719 43.1108 6.75006 43.9932C6.44294 44.8757 6.4181 45.8318 6.67899 46.729C6.93988 47.6261 7.47357 48.4199 8.206 49H7C6.20435 49 5.44129 49.3161 4.87868 49.8787C4.31607 50.4413 4 51.2043 4 52V62C4 62.2652 4.10536 62.5196 4.29289 62.7071C4.48043 62.8946 4.73478 63 5 63H17C17.2652 63 17.5196 62.8946 17.7071 62.7071C17.8946 62.5196 18 62.2652 18 62V52C18 51.2043 17.6839 50.4413 17.1213 49.8787C16.5587 49.3161 15.7956 49 15 49V49ZM11 43C11.4945 43 11.9778 43.1466 12.3889 43.4213C12.8 43.696 13.1205 44.0865 13.3097 44.5433C13.4989 45.0001 13.5484 45.5028 13.452 45.9877C13.3555 46.4727 13.1174 46.9181 12.7678 47.2678C12.4181 47.6174 11.9727 47.8555 11.4877 47.952C11.0028 48.0484 10.5001 47.9989 10.0433 47.8097C9.58648 47.6205 9.19603 47.3 8.92133 46.8889C8.64662 46.4778 8.5 45.9944 8.5 45.5C8.5 44.8369 8.76339 44.2011 9.23223 43.7322C9.70107 43.2634 10.337 43 11 43V43ZM16 61H6V52C6 51.7348 6.10536 51.4804 6.29289 51.2929C6.48043 51.1053 6.73478 51 7 51H15C15.2652 51 15.5196 51.1053 15.7071 51.2929C15.8946 51.4804 16 51.7348 16 52V61ZM57 49H55.794C56.5264 48.4199 57.0601 47.6261 57.321 46.729C57.5819 45.8318 57.5571 44.8757 57.2499 43.9932C56.9428 43.1108 56.3686 42.3459 55.6071 41.8046C54.8455 41.2633 53.9343 40.9724 53 40.9724C52.0657 40.9724 51.1545 41.2633 50.3929 41.8046C49.6314 42.3459 49.0572 43.1108 48.7501 43.9932C48.4429 44.8757 48.4181 45.8318 48.679 46.729C48.9399 47.6261 49.4736 48.4199 50.206 49H49C48.2044 49 47.4413 49.3161 46.8787 49.8787C46.3161 50.4413 46 51.2043 46 52V62C46 62.2652 46.1054 62.5196 46.2929 62.7071C46.4804 62.8946 46.7348 63 47 63H59C59.2652 63 59.5196 62.8946 59.7071 62.7071C59.8946 62.5196 60 62.2652 60 62V52C60 51.2043 59.6839 50.4413 59.1213 49.8787C58.5587 49.3161 57.7956 49 57 49ZM53 43C53.4945 43 53.9778 43.1466 54.3889 43.4213C54.8001 43.696 55.1205 44.0865 55.3097 44.5433C55.4989 45.0001 55.5484 45.5028 55.452 45.9877C55.3555 46.4727 55.1174 46.9181 54.7678 47.2678C54.4181 47.6174 53.9727 47.8555 53.4877 47.952C53.0028 48.0484 52.5001 47.9989 52.0433 47.8097C51.5865 47.6205 51.196 47.3 50.9213 46.8889C50.6466 46.4778 50.5 45.9944 50.5 45.5C50.5 44.8369 50.7634 44.2011 51.2322 43.7322C51.7011 43.2634 52.337 43 53 43V43ZM58 61H48V52C48 51.7348 48.1054 51.4804 48.2929 51.2929C48.4804 51.1053 48.7348 51 49 51H57C57.2652 51 57.5196 51.1053 57.7071 51.2929C57.8946 51.4804 58 51.7348 58 52V61Z" fill="#e03a3c"/>
</svg>
