<svg width="64" height="64" viewBox="0 0 64 64" fill="none" xmlns="http://www.w3.org/2000/svg">
<path d="M19.9056 11.2052C20.0952 11.3013 20.3105 11.3344 20.5202 11.2998C20.73 11.2652 20.9232 11.1647 21.0719 11.0128C25.6864 6.30107 34.0136 8.37732 37.6224 10.0434L36.5591 11.8853C36.4668 12.0454 36.4206 12.2279 36.4257 12.4126C36.4308 12.5973 36.487 12.777 36.588 12.9318C36.689 13.0865 36.8309 13.2102 36.9979 13.2892C37.165 13.3682 37.3506 13.3994 37.5343 13.3793L47.8539 12.2463C48.0046 12.2298 48.1496 12.1792 48.2779 12.0983C48.4062 12.0175 48.5144 11.9086 48.5944 11.7797C48.6743 11.6509 48.724 11.5056 48.7395 11.3548C48.755 11.204 48.7361 11.0516 48.6841 10.9092L44.9377 0.656695C44.8724 0.477975 44.7575 0.321585 44.6065 0.205886C44.4554 0.0901872 44.2745 0.0199812 44.0849 0.00351036C43.8954 -0.0129605 43.7051 0.0249874 43.5363 0.112899C43.3676 0.200811 43.2274 0.335037 43.1323 0.49982L42.0932 2.29957C36.9019 -0.379555 31.0674 -0.652305 26.3052 1.60194C22.4947 3.40607 19.9671 6.52182 19.3707 10.1509C19.3363 10.3607 19.3695 10.576 19.4657 10.7655C19.5619 10.9551 19.716 11.1091 19.9056 11.2052V11.2052ZM27.1609 3.40969C31.6001 1.30807 37.1366 1.71982 41.9712 4.51119C42.0849 4.57693 42.2105 4.6196 42.3407 4.63676C42.4709 4.65392 42.6032 4.64523 42.7301 4.61119C42.9862 4.54244 43.2046 4.37483 43.3372 4.14519L43.7939 3.35395L46.3676 10.3974L39.2779 11.1759L39.8797 10.1337C39.9453 10.02 39.988 9.89441 40.0051 9.76421C40.0222 9.63401 40.0135 9.50171 39.9795 9.37487C39.9455 9.24802 39.8869 9.12912 39.8069 9.02494C39.727 8.92076 39.6273 8.83335 39.5136 8.76769C37.7404 7.74419 34.2897 6.45269 30.3999 6.18244C29.9326 6.14963 29.4643 6.13308 28.9958 6.13282C26.4884 6.13282 24.2634 6.62607 22.3986 7.58782C23.4128 5.86332 25.0516 4.40832 27.1609 3.40969V3.40969ZM63.1583 29.0601L59.5804 28.4873C59.3832 27.868 59.1338 27.2666 58.8349 26.6894L60.9603 23.7539C61.0998 23.5613 61.1661 23.3253 61.1472 23.0882C61.1284 22.8511 61.0256 22.6285 60.8574 22.4603L58.0964 19.6993C57.9283 19.5312 57.7057 19.4285 57.4686 19.4097C57.2316 19.3908 56.9956 19.4571 56.8029 19.5966L53.8676 21.7218C53.2903 21.4229 52.6888 21.1734 52.0694 20.9761L51.4968 17.3986C51.4592 17.1638 51.3392 16.95 51.1582 16.7957C50.9773 16.6414 50.7472 16.5567 50.5094 16.5567H46.6048C46.367 16.5567 46.137 16.6414 45.956 16.7957C45.7751 16.95 45.655 17.1638 45.6174 17.3986L45.0448 20.9761C44.4254 21.1734 43.8239 21.4229 43.2467 21.7218L40.3113 19.5966C40.1187 19.457 39.8827 19.3907 39.6456 19.4095C39.4086 19.4284 39.186 19.5311 39.0178 19.6993L36.2568 22.4603C36.0886 22.6285 35.9859 22.8511 35.967 23.0882C35.9482 23.3253 36.0145 23.5613 36.1539 23.7539L38.2793 26.6893C37.9804 27.2665 37.731 27.868 37.5338 28.4873L33.9559 29.0601C33.7211 29.0977 33.5074 29.2177 33.3531 29.3987C33.1988 29.5796 33.1141 29.8096 33.1141 30.0474V33.9519C33.1141 34.1897 33.1988 34.4198 33.3531 34.6007C33.5074 34.7817 33.7211 34.9017 33.9559 34.9393L37.5338 35.5119C37.7311 36.1313 37.9805 36.7327 38.2793 37.3099L36.1538 40.2454C36.0143 40.4381 35.9481 40.6741 35.9669 40.9112C35.9858 41.1483 36.0885 41.3709 36.2567 41.5391L39.0177 44.3001C39.1859 44.4682 39.4085 44.5709 39.6455 44.5897C39.8826 44.6086 40.1186 44.5423 40.3112 44.4028L43.2467 42.2776C43.8239 42.5765 44.4254 42.826 45.0447 43.0233L45.6173 46.6007C45.6549 46.8355 45.7749 47.0493 45.9559 47.2035C46.1369 47.3578 46.3669 47.4426 46.6047 47.4426H50.5093C50.7471 47.4426 50.9772 47.3578 51.1581 47.2035C51.3391 47.0493 51.4591 46.8355 51.4967 46.6007L52.0694 43.0229C52.6887 42.8257 53.2902 42.5762 53.8673 42.2773L56.8028 44.4028C56.9955 44.5423 57.2315 44.6085 57.4685 44.5897C57.7056 44.5708 57.9282 44.4682 58.0964 44.3001L60.8574 41.5391C61.0256 41.3709 61.1284 41.1483 61.1472 40.9112C61.1661 40.6741 61.0998 40.4381 60.9603 40.2454L58.8349 37.3099C59.1339 36.7328 59.3833 36.1313 59.5806 35.5119L63.1582 34.9393C63.393 34.9017 63.6067 34.7817 63.761 34.6007C63.9153 34.4198 64.0001 34.1897 64.0001 33.9519V30.0474C64.0001 29.8097 63.9154 29.5796 63.7611 29.3987C63.6068 29.2177 63.3931 29.0977 63.1583 29.0601V29.0601ZM62.0002 33.0994L58.6372 33.6378C58.4446 33.6686 58.2653 33.7551 58.1213 33.8865C57.9772 34.018 57.8747 34.1886 57.8264 34.3776C57.6022 35.2539 57.2539 36.0937 56.7921 36.8716C56.6926 37.0393 56.6443 37.2325 56.6532 37.4273C56.6621 37.6221 56.7278 37.8101 56.8422 37.9681L58.8404 40.7279L57.2853 42.2829L54.5256 40.2848C54.3676 40.1705 54.1796 40.1048 53.9848 40.0959C53.79 40.087 53.5968 40.1352 53.4291 40.2347C52.6511 40.6963 51.8112 41.0446 50.9348 41.2689C50.7459 41.3173 50.5753 41.4197 50.4439 41.5637C50.3125 41.7078 50.226 41.8871 50.1952 42.0796L49.6568 45.4427H47.4576L46.9193 42.0798C46.8885 41.8873 46.802 41.708 46.6706 41.5639C46.5391 41.4199 46.3685 41.3174 46.1796 41.2691C45.3032 41.0449 44.4633 40.6966 43.6854 40.2348C43.5177 40.1353 43.3245 40.0871 43.1297 40.096C42.9349 40.1049 42.7469 40.1706 42.5889 40.2849L39.8291 42.2829L38.2739 40.7279L40.2722 37.9681C40.3866 37.8101 40.4522 37.6221 40.4611 37.4273C40.47 37.2325 40.4218 37.0393 40.3223 36.8716C39.8607 36.0936 39.5124 35.2538 39.2881 34.3774C39.2397 34.1885 39.1373 34.0179 38.9932 33.8865C38.8492 33.7551 38.6698 33.6686 38.4773 33.6378L35.1141 33.0994V30.9002L38.4773 30.3617C38.6698 30.3309 38.8492 30.2444 38.9932 30.113C39.1373 29.9816 39.2397 29.811 39.2881 29.6221C39.5123 28.7457 39.8605 27.9059 40.3222 27.1279C40.4217 26.9602 40.4699 26.767 40.461 26.5722C40.4521 26.3774 40.3864 26.1894 40.2721 26.0314L38.2739 23.2717L39.8291 21.7167L42.5887 23.7146C42.7467 23.8289 42.9346 23.8945 43.1295 23.9034C43.3243 23.9123 43.5174 23.8641 43.6852 23.7647C44.4632 23.303 45.3031 22.9548 46.1796 22.7306C46.3685 22.6822 46.5391 22.5798 46.6706 22.4357C46.802 22.2917 46.8885 22.1124 46.9193 21.9198L47.4576 18.5568H49.6568L50.1951 21.9198C50.2259 22.1124 50.3124 22.2917 50.4438 22.4357C50.5752 22.5798 50.7459 22.6822 50.9348 22.7306C51.8112 22.9548 52.6511 23.3031 53.4289 23.7648C53.5967 23.8643 53.7899 23.9125 53.9847 23.9036C54.1795 23.8947 54.3674 23.829 54.5254 23.7147L57.2852 21.7167L58.8403 23.2717L56.8421 26.0316C56.7277 26.1895 56.662 26.3775 56.6531 26.5723C56.6442 26.7672 56.6925 26.9603 56.7919 27.1281C57.2536 27.906 57.6019 28.7459 57.8262 29.6222C57.8745 29.8111 57.977 29.9817 58.121 30.1131C58.265 30.2444 58.4443 30.3309 58.6368 30.3617L62.0002 30.9002V33.0994ZM48.5572 25.2306C44.8247 25.2306 41.7879 28.2673 41.7879 31.9998C41.7879 35.7323 44.8246 38.7689 48.5572 38.7689C52.2898 38.7689 55.3263 35.7323 55.3263 31.9998C55.3263 28.2673 52.2897 25.2306 48.5572 25.2306V25.2306ZM48.5572 36.7689C45.9274 36.7689 43.7879 34.6296 43.7879 31.9998C43.7879 29.3701 45.9274 27.2306 48.5572 27.2306C51.1869 27.2306 53.3263 29.3701 53.3263 31.9998C53.3263 34.6296 51.1869 36.7689 48.5572 36.7689ZM20.1396 45.0646V44.3198C21.0004 43.9212 21.6004 43.0512 21.6004 42.0417V40.5638C21.8286 36.7466 22.7747 35.1288 23.6899 33.5648C24.5423 32.1079 25.3476 30.7318 25.3476 28.0599C25.3476 22.3802 20.7268 17.7594 15.0472 17.7594C9.36757 17.7594 4.74669 22.3803 4.74669 28.0599C4.74669 30.7318 5.55194 32.1079 6.40444 33.5648C7.31969 35.1288 8.26582 36.7466 8.49394 40.5638V42.0417C8.49394 43.0904 9.14069 43.9899 10.0558 44.3653V45.0646C10.0558 46.1088 10.6968 47.0054 11.6057 47.3837V48.0873C11.6057 49.4721 12.7323 50.5987 14.1169 50.5987H16.0783C17.4631 50.5987 18.5897 49.4721 18.5897 48.0873V47.3838C19.4986 47.0054 20.1396 46.1087 20.1396 45.0646V45.0646ZM17.6283 45.5757H12.5671C12.2899 45.5757 12.0557 45.3416 12.0557 45.0644V44.5529H18.1394V45.0644C18.1396 45.3416 17.9054 45.5757 17.6283 45.5757ZM11.0052 42.5531C10.7281 42.5531 10.4939 42.3189 10.4939 42.0417V41.5302H19.6004V42.0417C19.6004 42.3189 19.3663 42.5531 19.0893 42.5531H11.0052ZM12.4411 29.2896H11.2798C10.6396 29.2896 10.1186 28.7687 10.1186 28.1283C10.1186 27.4879 10.6394 26.9671 11.2798 26.9671C11.9202 26.9671 12.4411 27.4879 12.4411 28.1283V29.2896V29.2896ZM15.6532 39.5302H14.4411V31.2896H15.6532V39.5302ZM6.74669 28.0599C6.74669 23.4831 10.4703 19.7594 15.0472 19.7594C19.6241 19.7594 23.3476 23.4831 23.3476 28.0599C23.3476 30.1897 22.7368 31.2334 21.9637 32.5547C21.0957 34.0382 20.0314 35.8568 19.6749 39.5302H17.6532V31.2896H18.8144C20.5576 31.2896 21.9757 29.8714 21.9757 28.1283C21.9757 26.3852 20.5576 24.9671 18.8144 24.9671C17.0713 24.9671 15.6532 26.3852 15.6532 28.1283V29.2896H14.4411V28.1283C14.4411 26.3852 13.0229 24.9671 11.2798 24.9671C9.53669 24.9671 8.11857 26.3852 8.11857 28.1283C8.11857 29.8714 9.53669 31.2896 11.2798 31.2896H12.4411V39.5302H10.4192C10.0627 35.8568 8.99857 34.0381 8.13057 32.5547C7.35732 31.2334 6.74669 30.1898 6.74669 28.0599V28.0599ZM17.6532 29.2896V28.1283C17.6532 27.4879 18.1741 26.9671 18.8144 26.9671C19.4548 26.9671 19.9757 27.4879 19.9757 28.1283C19.9757 28.7687 19.4548 29.2896 18.8144 29.2896H17.6532ZM16.0783 48.5986H14.1169C13.8398 48.5986 13.6057 48.3644 13.6057 48.0872V47.5757H16.5897V48.0872C16.5897 48.3644 16.3554 48.5986 16.0783 48.5986ZM14.0471 15.6157V13.4251C14.0471 13.1599 14.1524 12.9055 14.34 12.718C14.5275 12.5304 14.7818 12.4251 15.0471 12.4251C15.3123 12.4251 15.5666 12.5304 15.7542 12.718C15.9417 12.9055 16.0471 13.1599 16.0471 13.4251V15.6157C16.0471 15.8809 15.9417 16.1353 15.7542 16.3228C15.5666 16.5103 15.3123 16.6157 15.0471 16.6157C14.7818 16.6157 14.5275 16.5103 14.34 16.3228C14.1524 16.1353 14.0471 15.8809 14.0471 15.6157ZM6.07107 16.0979C5.94055 15.8684 5.90613 15.5965 5.97532 15.3417C6.04451 15.0868 6.21168 14.8697 6.44037 14.7377C6.66906 14.6056 6.94069 14.5694 7.19598 14.6369C7.45128 14.7044 7.66952 14.8701 7.80307 15.0979L8.89844 16.9952C8.9641 17.1089 9.00672 17.2345 9.02386 17.3647C9.041 17.4949 9.03232 17.6272 8.99833 17.754C8.96434 17.8809 8.90569 17.9998 8.82575 18.104C8.7458 18.2082 8.64611 18.2956 8.53238 18.3613C8.41865 18.4269 8.29309 18.4695 8.16289 18.4867C8.03269 18.5038 7.90038 18.4951 7.77353 18.4611C7.64668 18.4272 7.52777 18.3685 7.42358 18.2886C7.3194 18.2086 7.23198 18.1089 7.16632 17.9952L6.07107 16.0979V16.0979ZM3.76344 23.1303C3.6978 23.2441 3.61039 23.3438 3.5062 23.4238C3.40201 23.5037 3.28308 23.5624 3.15621 23.5964C3.02935 23.6304 2.89702 23.639 2.76681 23.6219C2.63659 23.6047 2.51104 23.562 2.39732 23.4963L0.500191 22.4008C0.386466 22.3352 0.28679 22.2477 0.206852 22.1435C0.126915 22.0393 0.0682818 21.9204 0.0343014 21.7936C0.000320937 21.6667 -0.00834168 21.5344 0.00880812 21.4042C0.0259579 21.274 0.0685843 21.1485 0.134253 21.0348C0.199923 20.921 0.287348 20.8214 0.391539 20.7414C0.49573 20.6615 0.614646 20.6028 0.741497 20.5689C0.868347 20.5349 1.00065 20.5262 1.13085 20.5434C1.26105 20.5605 1.38659 20.6032 1.50032 20.6688L3.39757 21.7643C3.62722 21.897 3.79478 22.1154 3.86339 22.3715C3.93201 22.6277 3.89605 22.9007 3.76344 23.1303V23.1303ZM23.6571 14.7319C23.8867 14.8646 24.0543 15.083 24.123 15.3391C24.1916 15.5953 24.1557 15.8683 24.0231 16.0979L22.9277 17.9952C22.8621 18.109 22.7746 18.2087 22.6704 18.2886C22.5663 18.3686 22.4473 18.4273 22.3205 18.4613C22.1936 18.4952 22.0613 18.5039 21.9311 18.4867C21.8008 18.4696 21.6753 18.4269 21.5616 18.3612C21.3319 18.2286 21.1643 18.0102 21.0957 17.754C21.027 17.4978 21.063 17.2249 21.1956 16.9952L22.2909 15.0979C22.3566 14.9842 22.444 14.8845 22.5482 14.8045C22.6524 14.7246 22.7713 14.6659 22.8982 14.6319C23.025 14.5979 23.1574 14.5893 23.2876 14.6064C23.4178 14.6236 23.5433 14.6663 23.6571 14.7319V14.7319ZM29.9601 21.0349C30.0927 21.2646 30.1286 21.5376 30.06 21.7937C29.9913 22.0499 29.8237 22.2683 29.5941 22.4009L27.6968 23.4963C27.5831 23.562 27.4575 23.6047 27.3273 23.6219C27.1971 23.639 27.0648 23.6304 26.9379 23.5964C26.8111 23.5624 26.6921 23.5037 26.5879 23.4238C26.4837 23.3438 26.3963 23.2441 26.3307 23.1303C26.1981 22.9006 26.1622 22.6277 26.2308 22.3715C26.2994 22.1153 26.467 21.8969 26.6967 21.7643L28.5939 20.6689C29.0723 20.3931 29.6839 20.5567 29.9601 21.0349ZM47.3918 53.3202C47.2022 53.2242 46.9869 53.1912 46.7772 53.2258C46.5675 53.2603 46.3742 53.3608 46.2254 53.5126C41.9158 57.9129 34.1503 56.0034 30.7294 54.4414L31.7019 52.7569C31.7942 52.5969 31.8404 52.4144 31.8353 52.2297C31.8302 52.045 31.774 51.8653 31.6731 51.7106C31.5721 51.5558 31.4302 51.4321 31.2632 51.3531C31.0961 51.2741 30.9105 51.2429 30.7268 51.2629L20.9898 52.3321C20.8391 52.3486 20.6941 52.3992 20.5659 52.4801C20.4376 52.5609 20.3294 52.6698 20.2494 52.7986C20.1694 52.9275 20.1198 53.0728 20.1043 53.2236C20.0887 53.3744 20.1077 53.5268 20.1597 53.6692L23.6944 63.3431C23.7598 63.5217 23.8747 63.678 24.0258 63.7936C24.1768 63.9093 24.3577 63.9794 24.5472 63.9959C24.7367 64.0123 24.927 63.9744 25.0957 63.8865C25.2644 63.7987 25.4045 63.6645 25.4997 63.4998L26.4532 61.8483C31.3551 64.3613 36.8574 64.6104 41.3521 62.4826C44.9646 60.7723 47.3609 57.8171 47.9267 54.3744C47.9611 54.1647 47.9278 53.9494 47.8317 53.7598C47.7355 53.5703 47.5814 53.4163 47.3918 53.3202V53.3202ZM40.4963 60.6749C36.3246 62.6498 31.1202 62.2619 26.5747 59.6378C26.461 59.5721 26.3355 59.5294 26.2053 59.5123C26.0751 59.4951 25.9428 59.5038 25.8159 59.5378C25.5597 59.6065 25.3413 59.7741 25.2087 60.0038L24.8382 60.6457L22.4761 54.1809L28.9832 53.4664L28.4711 54.3534C28.3385 54.5832 28.3026 54.8561 28.3712 55.1123C28.4398 55.3685 28.6074 55.5869 28.8371 55.7196C30.5153 56.6884 33.7807 57.9104 37.4604 58.1662C40.3008 58.3633 42.8058 57.9373 44.8641 56.9229C43.9067 58.4667 42.4072 59.7703 40.4963 60.6749V60.6749Z" fill="#e03a3c"/>
</svg>
