<svg width="64" height="64" viewBox="0 0 64 64" fill="none" xmlns="http://www.w3.org/2000/svg">
<path d="M11.4368 23.7714H8.82286C8.58037 23.7714 8.34782 23.8677 8.17636 24.0392C8.0049 24.2107 7.90857 24.4432 7.90857 24.6857C7.90857 24.9282 8.0049 25.1607 8.17636 25.3322C8.34782 25.5037 8.58037 25.6 8.82286 25.6H11.4359C11.6784 25.6 11.9109 25.5037 12.0824 25.3322C12.2538 25.1607 12.3502 24.9282 12.3502 24.6857C12.3502 24.4432 12.2538 24.2107 12.0824 24.0392C11.9109 23.8677 11.6784 23.7714 11.4359 23.7714H11.4368ZM17.7061 24.6857C17.7061 24.9282 17.8024 25.1607 17.9738 25.3322C18.1453 25.5037 18.3779 25.6 18.6203 25.6H21.2334C21.4759 25.6 21.7084 25.5037 21.8799 25.3322C22.0513 25.1607 22.1477 24.9282 22.1477 24.6857C22.1477 24.4432 22.0513 24.2107 21.8799 24.0392C21.7084 23.8677 21.4759 23.7714 21.2334 23.7714H18.6203C18.3779 23.7714 18.1453 23.8677 17.9738 24.0392C17.8024 24.2107 17.7061 24.4432 17.7061 24.6857Z" fill="#e03a3c"/>
<path d="M59.4285 2.74286H21.0285C20.0201 2.74286 19.1999 3.56297 19.1999 4.57143V19.2H4.57137C3.56291 19.2 2.7428 20.0201 2.7428 21.0286V59.4286C2.7428 60.437 3.56291 61.2571 4.57137 61.2571H42.9714C43.9798 61.2571 44.7999 60.437 44.7999 59.4286V44.8H59.4285C60.437 44.8 61.2571 43.9799 61.2571 42.9714V4.57143C61.2571 3.56297 60.437 2.74286 59.4285 2.74286ZM42.9714 59.4286H4.57137V30.1714H42.9714V59.4286ZM42.9714 28.3429H4.57137V21.0286H20.1179L42.9714 21.0258V28.3429ZM59.4285 42.9714H44.7999V21.0286C44.7999 20.0201 43.9798 19.2 42.9714 19.2H21.0285V13.7143H59.4285V42.9714ZM59.4285 11.8857H21.0285V4.57143H59.4285V11.8857Z" fill="#e03a3c"/>
<path d="M25.281 9.14287H27.894C28.1365 9.14287 28.369 9.04655 28.5405 8.87508C28.712 8.70362 28.8083 8.47107 28.8083 8.22859C28.8083 7.9861 28.712 7.75355 28.5405 7.58209C28.369 7.41063 28.1365 7.3143 27.894 7.3143H25.2801C25.0376 7.3143 24.805 7.41063 24.6336 7.58209C24.4621 7.75355 24.3658 7.9861 24.3658 8.22859C24.3658 8.47107 24.4621 8.70362 24.6336 8.87508C24.805 9.04655 25.0376 9.14287 25.2801 9.14287H25.281ZM35.0775 9.14287H37.6906C37.9331 9.14287 38.1656 9.04655 38.3371 8.87508C38.5085 8.70362 38.6049 8.47107 38.6049 8.22859C38.6049 7.9861 38.5085 7.75355 38.3371 7.58209C38.1656 7.41063 37.9331 7.3143 37.6906 7.3143H35.0775C34.8351 7.3143 34.6025 7.41063 34.431 7.58209C34.2596 7.75355 34.1633 7.9861 34.1633 8.22859C34.1633 8.47107 34.2596 8.70362 34.431 8.87508C34.6025 9.04655 34.8351 9.14287 35.0775 9.14287ZM15.8108 50.9321C15.8955 51.0173 15.9962 51.0849 16.1072 51.1311C16.2181 51.1772 16.3371 51.201 16.4572 51.201C16.5773 51.201 16.6963 51.1772 16.8072 51.1311C16.9182 51.0849 17.0189 51.0173 17.1036 50.9321C17.275 50.7607 17.3713 50.5282 17.3713 50.2857C17.3713 50.0433 17.275 49.8108 17.1036 49.6393L13.1786 45.7143L17.1036 41.7893C17.1909 41.7049 17.2606 41.604 17.3085 41.4925C17.3564 41.381 17.3816 41.261 17.3827 41.1396C17.3837 41.0182 17.3606 40.8978 17.3146 40.7854C17.2687 40.6731 17.2008 40.571 17.1149 40.4851C17.0291 40.3993 16.927 40.3314 16.8146 40.2854C16.7023 40.2395 16.5819 40.2163 16.4605 40.2174C16.3391 40.2184 16.2191 40.2437 16.1076 40.2916C15.996 40.3395 15.8951 40.4091 15.8108 40.4965L11.2394 45.0679C11.068 45.2394 10.9717 45.4719 10.9717 45.7143C10.9717 45.9567 11.068 46.1892 11.2394 46.3607L15.8108 50.9321ZM30.4394 50.9321C30.5241 51.0173 30.6248 51.0849 30.7357 51.1311C30.8467 51.1772 30.9656 51.201 31.0858 51.201C31.2059 51.201 31.3249 51.1772 31.4358 51.1311C31.5467 51.0849 31.6475 51.0173 31.7322 50.9321L36.3036 46.3607C36.475 46.1892 36.5713 45.9567 36.5713 45.7143C36.5713 45.4719 36.475 45.2394 36.3036 45.0679L31.7322 40.4965C31.6478 40.4091 31.5469 40.3395 31.4354 40.2916C31.3239 40.2437 31.2039 40.2184 31.0825 40.2174C30.9611 40.2163 30.8407 40.2395 30.7283 40.2854C30.616 40.3314 30.5139 40.3993 30.428 40.4851C30.3422 40.571 30.2743 40.6731 30.2283 40.7854C30.1824 40.8978 30.1592 41.0182 30.1603 41.1396C30.1613 41.261 30.1866 41.381 30.2345 41.4925C30.2824 41.604 30.352 41.7049 30.4394 41.7893L34.3644 45.7143L30.4394 49.6393C30.268 49.8108 30.1717 50.0433 30.1717 50.2857C30.1717 50.5282 30.268 50.7607 30.4394 50.9321V50.9321ZM19.2833 55.7669C19.3927 55.816 19.5109 55.8431 19.6308 55.8466C19.7508 55.8501 19.8703 55.83 19.9825 55.7873C20.0946 55.7445 20.1973 55.6801 20.2845 55.5977C20.3718 55.5153 20.442 55.4165 20.491 55.307L28.7196 36.9454C28.7687 36.8359 28.7958 36.7178 28.7992 36.5978C28.8027 36.4779 28.7825 36.3584 28.7398 36.2463C28.6971 36.1341 28.6327 36.0315 28.5503 35.9442C28.468 35.8569 28.3692 35.7867 28.2597 35.7376C28.1502 35.6885 28.0321 35.6614 27.9122 35.658C27.7922 35.6545 27.6727 35.6747 27.5606 35.7174C27.4484 35.7601 27.3458 35.8245 27.2585 35.9069C27.1712 35.9892 27.101 36.088 27.0519 36.1975L18.8234 54.5591C18.7742 54.6686 18.7471 54.7867 18.7436 54.9067C18.7401 55.0266 18.7603 55.1461 18.803 55.2583C18.8457 55.3705 18.9101 55.4731 18.9925 55.5604C19.0749 55.6476 19.1737 55.7178 19.2833 55.7669V55.7669Z" fill="#e03a3c"/>
</svg>
