<svg width="64" height="64" viewBox="0 0 64 64" fill="none" xmlns="http://www.w3.org/2000/svg">
<path d="M62.569 28.9088L57.1021 27.1014C56.8777 25.941 56.5723 24.7978 56.1882 23.68L60.0269 19.3754L59.6519 18.6035C59.0008 17.2642 58.2539 15.9736 57.417 14.7418L56.9357 14.0339L51.3152 15.2038C50.5342 14.3071 49.6925 13.4651 48.7962 12.6835L49.9648 7.06305L49.257 6.58177C48.0247 5.74429 46.7332 4.99737 45.3927 4.34689L44.6221 3.97441L40.32 7.81313C39.2021 7.42964 38.0589 7.12426 36.8986 6.89921L35.0912 1.43233L34.2375 1.36961C32.7478 1.26209 31.2523 1.26209 29.7626 1.36961L28.9088 1.43105L27.1015 6.89921C25.9418 7.12449 24.7949 7.43041 23.68 7.81313L19.3754 3.97441L18.6035 4.34945C17.2642 5.00054 15.9736 5.74744 14.7418 6.58433L14.0352 7.06561L15.2051 12.6861C14.3084 13.4672 13.4664 14.3088 12.6848 15.2051L7.06563 14.0352L6.58435 14.743C5.74687 15.9754 4.99995 17.2669 4.34947 18.6074L3.97699 19.3779L7.81315 23.68C7.42966 24.798 7.12428 25.9412 6.89923 27.1014L1.43235 28.9088L1.36963 29.7626C1.31587 30.5037 1.28003 31.2461 1.28003 32C1.28003 32.7539 1.31587 33.4963 1.36963 34.2374L1.43107 35.0912L6.89795 36.8986C7.12323 38.0621 7.42915 39.2077 7.81187 40.32L3.97315 44.6246L4.34819 45.3965C4.99928 46.7358 5.74618 48.0264 6.58307 49.2583L7.06435 49.9661L12.6848 48.7962C13.4659 49.6929 14.3076 50.535 15.2039 51.3165L14.0352 56.937L14.7431 57.4183C15.9754 58.2557 17.2669 59.0026 18.6074 59.6531L19.3779 60.0256L23.6813 56.1894C24.7962 56.5722 25.9418 56.8781 27.1027 57.1034L28.9101 62.5702L29.7639 62.6317C30.5037 62.6842 31.2461 62.72 32 62.72C32.7539 62.72 33.4963 62.6842 34.2375 62.6304L35.0912 62.569L36.8986 57.1021C38.059 56.8777 39.2023 56.5723 40.32 56.1882L44.6247 60.0269L45.3965 59.6519C46.7358 59.0008 48.0265 58.2539 49.2583 57.417L49.9661 56.9357L48.7962 51.3152C49.6929 50.5341 50.535 49.6925 51.3165 48.7962L56.937 49.9648L57.4183 49.257C58.2557 48.0246 59.0027 46.7331 59.6531 45.3927L60.0256 44.6221L56.1869 40.32C56.5696 39.2051 56.8755 38.0582 57.1008 36.8986L62.5677 35.0912L62.6291 34.2374C62.6842 33.4963 62.72 32.7539 62.72 32C62.72 31.2461 62.6842 30.5037 62.6304 29.7626L62.569 28.9088V28.9088ZM60.1293 33.2006L54.8365 34.9504L54.7111 35.7171C54.4662 37.2307 54.0696 38.7157 53.5271 40.1498L53.2531 40.8742L56.9626 45.0368C56.5952 45.7408 56.1933 46.4333 55.7645 47.1066L50.3283 45.975L49.8368 46.5767C48.8597 47.769 47.7668 48.8615 46.5741 49.8381L45.9725 50.3296L47.1053 55.7658C46.4333 56.1933 45.7421 56.5939 45.0355 56.9651L40.873 53.2531L40.1472 53.5296C38.7264 54.0685 37.2352 54.4653 35.7159 54.7123L34.9491 54.8378L33.1994 60.1306C32.4045 60.1703 31.5917 60.1703 30.7968 60.1306L29.0471 54.8378L28.2803 54.7123C26.7671 54.468 25.2824 54.0713 23.849 53.5283L23.1232 53.2531L18.9607 56.9638C18.2539 56.5943 17.5633 56.1946 16.8909 55.7658L18.0224 50.3296L17.4208 49.8381C16.2285 48.861 15.136 47.7681 14.1594 46.5754L13.6679 45.9738L8.23171 47.1066C7.80352 46.4335 7.40339 45.743 7.03235 45.0368L10.7443 40.8742L10.4679 40.1485C9.92613 38.7147 9.52989 37.2301 9.28515 35.7171L9.15971 34.9504L3.86691 33.2006C3.82948 32.4006 3.83076 31.5993 3.87075 30.7994L9.16355 29.0496L9.28899 28.2829C9.53333 26.7696 9.93001 25.285 10.473 23.8515L10.7482 23.1258L7.03747 18.9632C7.40483 18.2592 7.80675 17.5667 8.23555 16.8934L13.6717 18.025L14.1632 17.4234C15.1403 16.231 16.2332 15.1385 17.4259 14.1619L18.0275 13.6704L16.8947 8.23425C17.5678 7.80606 18.2583 7.40593 18.9645 7.03489L23.1271 10.7456L23.8515 10.4717C25.2858 9.92976 26.7708 9.53311 28.2842 9.28769L29.0509 9.16225L30.8007 3.86945C31.601 3.82977 32.4029 3.82977 33.2032 3.86945L34.953 9.16225L35.7197 9.28769C37.233 9.53203 38.7176 9.92871 40.1511 10.4717L40.8768 10.7469L45.0394 7.03617C45.7434 7.40353 46.4359 7.80545 47.1091 8.23425L45.9776 13.6704L46.5792 14.1619C47.7671 15.1347 48.864 16.2317 49.8407 17.4246L50.3322 18.0262L55.7683 16.8934C56.1959 17.5654 56.5965 18.2566 56.9677 18.9632L53.2557 23.1258L53.5322 23.8515C54.0711 25.2723 54.4679 26.7635 54.7149 28.2829L54.8404 29.0496L60.1331 30.7994C60.1706 31.5994 60.1693 32.4008 60.1293 33.2006V33.2006Z" fill="#e03a3c"/>
<path d="M31.6275 14.0851C24.9856 14.2733 19.4138 19.8297 19.2077 26.4717C19.1441 28.3736 19.5075 30.2657 20.2713 32.0087C21.035 33.7518 22.1797 35.3015 23.6211 36.544C25.6922 38.336 26.88 40.8461 26.88 43.52V49.92H30.72V52.48H33.28V49.92H37.12V43.4329C37.12 40.8729 38.3322 38.3398 40.4467 36.4851C41.8139 35.2859 42.9094 33.8088 43.6601 32.1524C44.4108 30.496 44.7994 28.6985 44.8 26.88C44.8059 25.1672 44.4652 23.471 43.7985 21.8934C43.1317 20.3157 42.1527 18.8893 40.9203 17.6998C38.4192 15.2691 35.1091 14.0224 31.6275 14.0851V14.0851ZM34.56 47.36H29.44V44.8H34.56V47.36ZM38.7584 34.56C36.4288 36.6054 34.9658 39.3293 34.633 42.24H33.28V29.9699L36.745 26.505L34.935 24.695L32 27.6301L29.065 24.695L27.255 26.505L30.72 29.9699V42.24H29.376C29.0624 39.3459 27.6147 36.6144 25.2954 34.6086C24.1425 33.6145 23.227 32.3747 22.6161 30.9803C22.0052 29.586 21.7144 28.0725 21.7651 26.551C21.9302 21.239 26.3859 16.7949 31.6992 16.6451C34.4998 16.5491 37.1341 17.5898 39.136 19.5354C40.122 20.4869 40.9053 21.6282 41.4388 22.8904C41.9722 24.1526 42.2447 25.5097 42.24 26.88C42.2395 28.3341 41.9286 29.7714 41.3282 31.0958C40.7278 32.4202 39.8517 33.6012 38.7584 34.56V34.56Z" fill="#e03a3c"/>
</svg>
