<svg width="64" height="64" viewBox="0 0 64 64" fill="none" xmlns="http://www.w3.org/2000/svg">
<path d="M48.64 1.28H1.28003V44.8H6.40003V54.2899L15.8899 44.8H21.76V52.48H44.2701L55.04 63.2499V52.48H62.72V19.2H48.64V1.28ZM14.8301 42.24L8.96003 48.1101V42.24H3.84003V16.64H12.8V25.8355C12.0535 26.0987 11.4067 26.5864 10.9483 27.2317C10.49 27.8771 10.2426 28.6484 10.24 29.44C10.24 31.5571 11.9629 33.28 14.08 33.28C16.1971 33.28 17.92 31.5571 17.92 29.44C17.9175 28.6484 17.6701 27.8771 17.2117 27.2317C16.7534 26.5864 16.1066 26.0987 15.36 25.8355V14.08H3.84003V3.84H46.08V10.24H30.4845C30.2214 9.49346 29.7337 8.84664 29.0883 8.3883C28.443 7.92995 27.6716 7.68254 26.88 7.68C24.7629 7.68 23.04 9.40288 23.04 11.52C23.04 13.6371 24.7629 15.36 26.88 15.36C27.6716 15.3575 28.443 15.11 29.0883 14.6517C29.7337 14.1934 30.2214 13.5465 30.4845 12.8H46.08V19.2H21.76V42.24H14.8301ZM15.36 29.44C15.36 29.7795 15.2252 30.105 14.9851 30.3451C14.7451 30.5851 14.4195 30.72 14.08 30.72C13.7406 30.72 13.415 30.5851 13.1749 30.3451C12.9349 30.105 12.8 29.7795 12.8 29.44C12.8 29.1005 12.9349 28.7749 13.1749 28.5349C13.415 28.2949 13.7406 28.16 14.08 28.16C14.4195 28.16 14.7451 28.2949 14.9851 28.5349C15.2252 28.7749 15.36 29.1005 15.36 29.44ZM28.16 11.52C28.16 11.8595 28.0252 12.185 27.7851 12.4251C27.5451 12.6651 27.2195 12.8 26.88 12.8C26.5406 12.8 26.215 12.6651 25.9749 12.4251C25.7349 12.185 25.6 11.8595 25.6 11.52C25.6 11.1805 25.7349 10.8549 25.9749 10.6149C26.215 10.3749 26.5406 10.24 26.88 10.24C27.2195 10.24 27.5451 10.3749 27.7851 10.6149C28.0252 10.8549 28.16 11.1805 28.16 11.52V11.52ZM60.16 21.76V42.24H52.2445C51.9814 41.4935 51.4937 40.8466 50.8483 40.3883C50.203 39.93 49.4316 39.6825 48.64 39.68C46.5229 39.68 44.8 41.4029 44.8 43.52C44.8 45.6371 46.5229 47.36 48.64 47.36C49.4316 47.3575 50.203 47.11 50.8483 46.6517C51.4937 46.1934 51.9814 45.5465 52.2445 44.8H60.16V49.92H52.48V57.0701L45.33 49.92H24.32V30.72H33.28V34.7955C32.5335 35.0587 31.8867 35.5464 31.4283 36.1917C30.97 36.8371 30.7226 37.6084 30.72 38.4C30.72 40.5171 32.4429 42.24 34.56 42.24C36.6771 42.24 38.4 40.5171 38.4 38.4C38.3975 37.6084 38.1501 36.8371 37.6917 36.1917C37.2334 35.5464 36.5866 35.0587 35.84 34.7955V28.16H24.32V21.76H40.96V32H48.8755C49.1387 32.7465 49.6264 33.3934 50.2718 33.8517C50.9171 34.31 51.6885 34.5575 52.48 34.56C54.5971 34.56 56.32 32.8371 56.32 30.72C56.32 28.6029 54.5971 26.88 52.48 26.88C51.6885 26.8825 50.9171 27.13 50.2718 27.5883C49.6264 28.0466 49.1387 28.6935 48.8755 29.44H43.52V21.76H60.16ZM49.92 43.52C49.92 43.8595 49.7852 44.185 49.5451 44.4251C49.3051 44.6651 48.9795 44.8 48.64 44.8C48.3006 44.8 47.975 44.6651 47.7349 44.4251C47.4949 44.185 47.36 43.8595 47.36 43.52C47.36 43.1805 47.4949 42.8549 47.7349 42.6149C47.975 42.3749 48.3006 42.24 48.64 42.24C48.9795 42.24 49.3051 42.3749 49.5451 42.6149C49.7852 42.8549 49.92 43.1805 49.92 43.52ZM35.84 38.4C35.84 38.7395 35.7052 39.065 35.4651 39.3051C35.2251 39.5451 34.8995 39.68 34.56 39.68C34.2206 39.68 33.895 39.5451 33.6549 39.3051C33.4149 39.065 33.28 38.7395 33.28 38.4C33.28 38.0605 33.4149 37.7349 33.6549 37.4949C33.895 37.2549 34.2206 37.12 34.56 37.12C34.8995 37.12 35.2251 37.2549 35.4651 37.4949C35.7052 37.7349 35.84 38.0605 35.84 38.4ZM51.2 30.72C51.2 30.3805 51.3349 30.0549 51.5749 29.8149C51.815 29.5749 52.1406 29.44 52.48 29.44C52.8195 29.44 53.1451 29.5749 53.3851 29.8149C53.6252 30.0549 53.76 30.3805 53.76 30.72C53.76 31.0595 53.6252 31.385 53.3851 31.6251C53.1451 31.8651 52.8195 32 52.48 32C52.1406 32 51.815 31.8651 51.5749 31.6251C51.3349 31.385 51.2 31.0595 51.2 30.72Z" fill="black"/>
</svg>
